<svg xmlns="http://www.w3.org/2000/svg" width="64" height="64" viewBox="0 0 64 64"><g data-name="グループ 636" transform="translate(19254 -2103)"><circle data-name="楕円形 3" cx="32" cy="32" r="32" transform="translate(-19254 2103)" fill="#fff"/><g data-name="グループ 516" transform="translate(-19241.484 2114.516)"><path data-name="パス 36" d="M30 5H10a4.993 4.993 0 0 0-5 5v20a4.993 4.993 0 0 0 5 5h20a4.993 4.993 0 0 0 5-5V10a4.993 4.993 0 0 0-5-5zm1.667 25A1.65 1.65 0 0 1 30 31.667H10A1.65 1.65 0 0 1 8.333 30V18.333h5.233A6.933 6.933 0 0 0 13.333 20a6.667 6.667 0 1 0 13.333 0 5.6 5.6 0 0 0-.233-1.667h5.233zm-15-10A3.333 3.333 0 1 1 20 23.333 3.343 3.343 0 0 1 16.667 20zm15-5H24.4a6.641 6.641 0 0 0-8.8 0H8.333v-5A1.65 1.65 0 0 1 10 8.333h20A1.65 1.65 0 0 1 31.667 10z"/><rect data-name="長方形 252" width="4" height="4" rx="2" transform="translate(26.326 9.674)"/></g></g></svg>