<svg xmlns="http://www.w3.org/2000/svg" width="100.072" height="26.09" viewBox="0 0 100.072 26.09"><g data-name="グループ 625"><g data-name="グループ 630"><g data-name="グループ 628"><path data-name="パス 89" d="M99.256 11.274l-11.49-9.758A6.537 6.537 0 0 0 83.484.003H39.778a.5.5 0 0 0-.445.3.486.486 0 0 0 .128.553l8.522 7.258a2.336 2.336 0 0 0 1.512.594h25.4a6.116 6.116 0 0 1 3.655 1.195c.44.336 7.3 6.208 7.777 6.586a.489.489 0 0 1 .211.435.5.5 0 0 1-.478.454H60.194a.462.462 0 0 0-.441.277.48.48 0 0 0 .117.574c.136.136 8.649 7.357 8.649 7.357a2.27 2.27 0 0 0 1.449.5h13.793a6.565 6.565 0 0 0 4.039-1.534l11.484-9.754a2.331 2.331 0 0 0-.02-3.528z" fill="#fff"/></g><g data-name="グループ 629"><path data-name="パス 90" d="M.817 14.816l11.491 9.758a6.535 6.535 0 0 0 4.282 1.513h43.705a.5.5 0 0 0 .445-.3.485.485 0 0 0-.128-.553l-8.522-7.258a2.333 2.333 0 0 0-1.512-.594h-25.4a6.113 6.113 0 0 1-3.654-1.195c-.44-.337-7.3-6.208-7.777-6.586a.489.489 0 0 1-.211-.435.5.5 0 0 1 .479-.454h25.871a.487.487 0 0 0 .324-.851c-.136-.136-8.649-7.357-8.649-7.357a2.27 2.27 0 0 0-1.449-.5H16.319a6.564 6.564 0 0 0-4.039 1.534L.799 11.288a2.333 2.333 0 0 0 .02 3.528z" fill="#fff"/></g></g></g></svg>