<svg xmlns="http://www.w3.org/2000/svg" width="64" height="64" viewBox="0 0 64 64"><g data-name="グループ 637" transform="translate(19166 -2103)"><circle data-name="楕円形 4" cx="32" cy="32" r="32" transform="translate(-19166 2103)" fill="#fff"/><g data-name="Icons / Logos / Social / YouTube"><path data-name="fill" d="M-19134 2147c-10.322 0-13.089-.153-14.439-1.562-1.061-1.108-1.561-4.425-1.561-10.438s.5-9.33 1.561-10.438c1.425-1.486 4.823-1.562 14.439-1.562s13.012.076 14.439 1.562c1.061 1.108 1.561 4.425 1.561 10.438s-.5 9.329-1.561 10.437c-1.352 1.41-4.118 1.563-14.439 1.563zm-2.5-17.5a.512.512 0 0 0-.348.14.493.493 0 0 0-.152.36v10a.5.5 0 0 0 .5.5.493.493 0 0 0 .3-.1l6.665-5a.5.5 0 0 0 0-.8l-6.665-5a.493.493 0 0 0-.3-.1z" fill="#141414"/></g></g></svg>