<svg xmlns="http://www.w3.org/2000/svg" width="331.744" height="18.014" viewBox="0 0 331.744 18.014"><g data-name="グループ 625"><g data-name="グループ 627"><g data-name="グループ 625"><path data-name="パス 78" d="M155.065 3.926l8.888.006c.01 0 .017 0 .027.005h3.825V.063h-13.44a3.788 3.788 0 0 0-2.588.975 3.532 3.532 0 0 0-1.171 2.69v3.516a3.533 3.533 0 0 0 1.171 2.691 3.792 3.792 0 0 0 2.588.975h9.563a.618.618 0 0 1 .618.618v1.88a.621.621 0 0 1-.621.621h-12.73v3.97l13.545.013a3.732 3.732 0 0 0 2.712-1.3 3.774 3.774 0 0 0 .984-2.587v-3.42a3.546 3.546 0 0 0-1.171-2.679 3.769 3.769 0 0 0-2.585-.986h-9.615a.621.621 0 0 1-.621-.621V4.55a.624.624 0 0 1 .621-.624z" fill="#fff"/></g><g data-name="グループ 626"><path data-name="パス 79" d="M178.242 3.926l8.887.006c.01 0 .017 0 .027.005h3.827V.063h-13.444a3.789 3.789 0 0 0-2.588.975 3.532 3.532 0 0 0-1.171 2.69v3.516a3.533 3.533 0 0 0 1.171 2.691 3.794 3.794 0 0 0 2.589.975h9.563a.619.619 0 0 1 .619.618v1.88a.621.621 0 0 1-.621.621h-12.732v3.97l13.545.013a3.734 3.734 0 0 0 2.712-1.3 3.776 3.776 0 0 0 .984-2.587v-3.42a3.546 3.546 0 0 0-1.172-2.679 3.769 3.769 0 0 0-2.585-.986h-9.613a.621.621 0 0 1-.621-.621V4.55a.624.624 0 0 1 .623-.624z" fill="#fff"/></g><path data-name="パス 80" d="M99.414 3.955H86.096a.626.626 0 0 0-.625.626v8.853a.626.626 0 0 0 .625.626h13.318v3.865H85.297a3.638 3.638 0 0 1-3.666-3.667v-10.5A3.636 3.636 0 0 1 85.297.092h14.118z" fill="#fff"/><path data-name="パス 81" d="M122.318 3.782v4.607a3.51 3.51 0 0 1-1.091 2.588 3.571 3.571 0 0 1-2.6 1.078h-.374l4.979 5.87h-5.078l-4.928-5.87-4.9.024v5.846h-3.841V.115h14.142a3.571 3.571 0 0 1 2.6 1.078 3.512 3.512 0 0 1 1.091 2.589zm-14 .173V8.19h9.282a.624.624 0 0 0 .624-.624V4.579a.624.624 0 0 0-.624-.624z" fill="#fff"/><path data-name="パス 82" d="M131.318.091h10.5a3.681 3.681 0 0 1 3.667 3.666v10.5a3.682 3.682 0 0 1-3.667 3.667h-10.5a3.637 3.637 0 0 1-3.666-3.667v-10.5a3.634 3.634 0 0 1 3.666-3.666zm.173 4.791v8.249a.928.928 0 0 0 .927.927h8.251a.928.928 0 0 0 .927-.927V4.882a.928.928 0 0 0-.927-.927h-8.251a.928.928 0 0 0-.927.927z" fill="#fff"/><path data-name="パス 83" d="M211.354.091h3.839v17.833h-3.839v-6.985h-10.526v6.985h-3.839V.091h3.839v6.984h10.526z" fill="#fff"/><path data-name="パス 84" d="M237.321.091v3.864h-12.582v3.12h10.131v3.864h-10.131v3.12h12.582v3.865h-16.47V.091z" fill="#fff"/><path data-name="パス 85" d="M242.558 17.924V.067h3.839v13.992h13.512v3.865z" fill="#fff"/><path data-name="パス 86" d="M309.929.091v3.864h-12.582v3.12h10.129v3.864h-10.129v3.12h12.582v3.865h-16.472V.091z" fill="#fff"/><path data-name="パス 87" d="M313.911.091h17.833v3.864h-6.984v13.969h-3.864V3.955h-6.985z" fill="#fff"/><path data-name="パス 88" d="M284.16 17.924V4.795l-5.7 13.129h-4.046l-5.689-13.129v13.129h-3.821V.067h5.984l5.553 12.82L282 .067h5.98v17.857z" fill="#fff"/></g><g data-name="グループ 630"><g data-name="グループ 628"><path data-name="パス 89" d="M68.02 7.726l-7.874-6.688A4.48 4.48 0 0 0 57.211.001H27.258a.339.339 0 0 0-.3.2.333.333 0 0 0 .088.379l5.84 4.974a1.6 1.6 0 0 0 1.036.407h17.4a4.191 4.191 0 0 1 2.5.819c.3.231 5 4.254 5.329 4.514a.335.335 0 0 1 .144.3.343.343 0 0 1-.328.311H41.24a.317.317 0 0 0-.3.19.329.329 0 0 0 .08.393c.093.093 5.927 5.042 5.927 5.042a1.556 1.556 0 0 0 .993.346h9.452a4.5 4.5 0 0 0 2.768-1.051l7.87-6.685a1.6 1.6 0 0 0-.014-2.418z" fill="#fff"/></g><g data-name="グループ 629"><path data-name="パス 90" d="M.559 10.154l7.875 6.688a4.479 4.479 0 0 0 2.935 1.037h29.952a.34.34 0 0 0 .305-.2.333.333 0 0 0-.088-.379l-5.84-4.977a1.6 1.6 0 0 0-1.036-.407h-17.4a4.19 4.19 0 0 1-2.5-.819c-.3-.231-5.005-4.254-5.329-4.514a.335.335 0 0 1-.145-.3.342.342 0 0 1 .328-.311h17.718a.334.334 0 0 0 .222-.583c-.093-.093-5.927-5.042-5.927-5.042a1.556 1.556 0 0 0-.993-.346h-9.453a4.5 4.5 0 0 0-2.768 1.051L.545 7.736a1.6 1.6 0 0 0 .014 2.418z" fill="#fff"/></g></g></g></svg>