<svg data-name="グループ 513" xmlns="http://www.w3.org/2000/svg" width="64" height="64" viewBox="0 0 64 64"><circle data-name="楕円形 2" cx="32" cy="32" r="32" fill="#fff"/><g data-name="Icons / Logos / Social / Facebook"><path data-name="fill" d="M34 45a1 1 0 0 1-1 1h-4a1 1 0 0 1-1-1V32h-3.5a.5.5 0 0 1-.5-.5v-5a.5.5 0 0 1 .5-.5H28v-2.959a6.881 6.881 0 0 1 2.02-5.265C31.28 16.592 33.68 16 35.78 16H39a1 1 0 0 1 1 1v4a1 1 0 0 1-1 1h-3c-1.5 0-2 .5-2 2v2h5.41a.5.5 0 0 1 .493.582l-.833 5a.5.5 0 0 1-.493.418H34z" fill="#141414"/></g></svg>