<svg xmlns="http://www.w3.org/2000/svg" width="35.852" height="31.966" viewBox="0 0 35.852 31.966"><path data-name="パス 70" d="M1.169 0a1.17 1.17 0 0 0 0 2.339h4.508l4.02 18.967c.159.714.627 1.308 1.218 1.3h19.492a1.17 1.17 0 1 0 0-2.339H11.865l-.5-2.339h20.6a1.206 1.206 0 0 0 1.133-.914l2.729-11.695A1.224 1.224 0 0 0 34.695 3.9H8.405L7.772.928A1.206 1.206 0 0 0 6.627 0zm7.723 6.237h24.329l-2.181 9.356H10.879zm6.311 17.932a3.9 3.9 0 1 0 3.9 3.9 3.916 3.916 0 0 0-3.9-3.9zm10.915 0a3.9 3.9 0 1 0 3.9 3.9 3.916 3.916 0 0 0-3.9-3.9zm-10.915 2.339a1.559 1.559 0 1 1-1.559 1.559 1.542 1.542 0 0 1 1.559-1.559zm10.915 0a1.559 1.559 0 1 1-1.559 1.559 1.542 1.542 0 0 1 1.559-1.559z" fill="#fff"/></svg>